<svg xmlns="http://www.w3.org/2000/svg" xmlns:xlink="http://www.w3.org/1999/xlink" contentStyleType="text/css" data-diagram-type="CLASS" height="602px" preserveAspectRatio="none" style="width:297px;height:602px;background:#FFFFFF;" version="1.1" viewBox="0 0 297 602" width="297px" zoomAndPan="magnify"><defs/><g><!--class <time>--><g id="elem_&lt;time&gt;"><rect codeLine="1" fill="#F1F1F1" height="48" id="&lt;time&gt;" rx="2.5" ry="2.5" style="stroke:#181818;stroke-width:0.5;" width="87.0908" x="116.5" y="7"/><ellipse cx="131.5" cy="23" fill="#ADD1B2" rx="11" ry="11" style="stroke:#181818;stroke-width:1;"/><path d="M134.4688,28.6406 Q133.8906,28.9375 133.25,29.0781 Q132.6094,29.2344 131.9063,29.2344 Q129.4063,29.2344 128.0781,27.5938 Q126.7656,25.9375 126.7656,22.8125 Q126.7656,19.6875 128.0781,18.0313 Q129.4063,16.375 131.9063,16.375 Q132.6094,16.375 133.25,16.5313 Q133.9063,16.6875 134.4688,16.9844 L134.4688,19.7031 Q133.8438,19.125 133.25,18.8594 Q132.6563,18.5781 132.0313,18.5781 Q130.6875,18.5781 130,19.6563 Q129.3125,20.7188 129.3125,22.8125 Q129.3125,24.9063 130,25.9844 Q130.6875,27.0469 132.0313,27.0469 Q132.6563,27.0469 133.25,26.7813 Q133.8438,26.5 134.4688,25.9219 L134.4688,28.6406 Z " fill="#000000"/><text fill="#000000" font-family="sans-serif" font-size="14" lengthAdjust="spacing" textLength="55.0908" x="145.5" y="27.8467">&lt;time&gt;</text><line style="stroke:#181818;stroke-width:0.5;" x1="117.5" x2="202.5908" y1="39" y2="39"/><line style="stroke:#181818;stroke-width:0.5;" x1="117.5" x2="202.5908" y1="47" y2="47"/></g><!--class <12-hour-time>--><g id="elem_&lt;12-hour-time&gt;"><rect codeLine="2" fill="#F1F1F1" height="48" id="&lt;12-hour-time&gt;" rx="2.5" ry="2.5" style="stroke:#181818;stroke-width:0.5;" width="147.0762" x="86.5" y="115"/><ellipse cx="101.5" cy="131" fill="#ADD1B2" rx="11" ry="11" style="stroke:#181818;stroke-width:1;"/><path d="M104.4688,136.6406 Q103.8906,136.9375 103.25,137.0781 Q102.6094,137.2344 101.9063,137.2344 Q99.4063,137.2344 98.0781,135.5938 Q96.7656,133.9375 96.7656,130.8125 Q96.7656,127.6875 98.0781,126.0313 Q99.4063,124.375 101.9063,124.375 Q102.6094,124.375 103.25,124.5313 Q103.9063,124.6875 104.4688,124.9844 L104.4688,127.7031 Q103.8438,127.125 103.25,126.8594 Q102.6563,126.5781 102.0313,126.5781 Q100.6875,126.5781 100,127.6563 Q99.3125,128.7188 99.3125,130.8125 Q99.3125,132.9063 100,133.9844 Q100.6875,135.0469 102.0313,135.0469 Q102.6563,135.0469 103.25,134.7813 Q103.8438,134.5 104.4688,133.9219 L104.4688,136.6406 Z " fill="#000000"/><text fill="#000000" font-family="sans-serif" font-size="14" lengthAdjust="spacing" textLength="115.0762" x="115.5" y="135.8467">&lt;12-hour-time&gt;</text><line style="stroke:#181818;stroke-width:0.5;" x1="87.5" x2="232.5762" y1="147" y2="147"/><line style="stroke:#181818;stroke-width:0.5;" x1="87.5" x2="232.5762" y1="155" y2="155"/></g><!--class <12-hour-hour>--><g id="elem_&lt;12-hour-hour&gt;"><rect codeLine="3" fill="#F1F1F1" height="48" id="&lt;12-hour-hour&gt;" rx="2.5" ry="2.5" style="stroke:#181818;stroke-width:0.5;" width="147.5137" x="7" y="223"/><ellipse cx="22" cy="239" fill="#ADD1B2" rx="11" ry="11" style="stroke:#181818;stroke-width:1;"/><path d="M24.9688,244.6406 Q24.3906,244.9375 23.75,245.0781 Q23.1094,245.2344 22.4063,245.2344 Q19.9063,245.2344 18.5781,243.5938 Q17.2656,241.9375 17.2656,238.8125 Q17.2656,235.6875 18.5781,234.0313 Q19.9063,232.375 22.4063,232.375 Q23.1094,232.375 23.75,232.5313 Q24.4063,232.6875 24.9688,232.9844 L24.9688,235.7031 Q24.3438,235.125 23.75,234.8594 Q23.1563,234.5781 22.5313,234.5781 Q21.1875,234.5781 20.5,235.6563 Q19.8125,236.7188 19.8125,238.8125 Q19.8125,240.9063 20.5,241.9844 Q21.1875,243.0469 22.5313,243.0469 Q23.1563,243.0469 23.75,242.7813 Q24.3438,242.5 24.9688,241.9219 L24.9688,244.6406 Z " fill="#000000"/><text fill="#000000" font-family="sans-serif" font-size="14" lengthAdjust="spacing" textLength="115.5137" x="36" y="243.8467">&lt;12-hour-hour&gt;</text><line style="stroke:#181818;stroke-width:0.5;" x1="8" x2="153.5137" y1="255" y2="255"/><line style="stroke:#181818;stroke-width:0.5;" x1="8" x2="153.5137" y1="263" y2="263"/></g><!--class <period>--><g id="elem_&lt;period&gt;"><rect codeLine="4" fill="#F1F1F1" height="48" id="&lt;period&gt;" rx="2.5" ry="2.5" style="stroke:#181818;stroke-width:0.5;" width="100.0586" x="190" y="223"/><ellipse cx="205" cy="239" fill="#ADD1B2" rx="11" ry="11" style="stroke:#181818;stroke-width:1;"/><path d="M207.9688,244.6406 Q207.3906,244.9375 206.75,245.0781 Q206.1094,245.2344 205.4063,245.2344 Q202.9063,245.2344 201.5781,243.5938 Q200.2656,241.9375 200.2656,238.8125 Q200.2656,235.6875 201.5781,234.0313 Q202.9063,232.375 205.4063,232.375 Q206.1094,232.375 206.75,232.5313 Q207.4063,232.6875 207.9688,232.9844 L207.9688,235.7031 Q207.3438,235.125 206.75,234.8594 Q206.1563,234.5781 205.5313,234.5781 Q204.1875,234.5781 203.5,235.6563 Q202.8125,236.7188 202.8125,238.8125 Q202.8125,240.9063 203.5,241.9844 Q204.1875,243.0469 205.5313,243.0469 Q206.1563,243.0469 206.75,242.7813 Q207.3438,242.5 207.9688,241.9219 L207.9688,244.6406 Z " fill="#000000"/><text fill="#000000" font-family="sans-serif" font-size="14" lengthAdjust="spacing" textLength="68.0586" x="219" y="243.8467">&lt;period&gt;</text><line style="stroke:#181818;stroke-width:0.5;" x1="191" x2="289.0586" y1="255" y2="255"/><line style="stroke:#181818;stroke-width:0.5;" x1="191" x2="289.0586" y1="263" y2="263"/></g><!--class pm--><g id="elem_pm"><rect codeLine="5" fill="#F1F1F1" height="48" id="pm" rx="2.5" ry="2.5" style="stroke:#181818;stroke-width:0.5;" width="54.5244" x="212.5" y="331"/><ellipse cx="227.5" cy="347" fill="#ADD1B2" rx="11" ry="11" style="stroke:#181818;stroke-width:1;"/><path d="M230.4688,352.6406 Q229.8906,352.9375 229.25,353.0781 Q228.6094,353.2344 227.9063,353.2344 Q225.4063,353.2344 224.0781,351.5938 Q222.7656,349.9375 222.7656,346.8125 Q222.7656,343.6875 224.0781,342.0313 Q225.4063,340.375 227.9063,340.375 Q228.6094,340.375 229.25,340.5313 Q229.9063,340.6875 230.4688,340.9844 L230.4688,343.7031 Q229.8438,343.125 229.25,342.8594 Q228.6563,342.5781 228.0313,342.5781 Q226.6875,342.5781 226,343.6563 Q225.3125,344.7188 225.3125,346.8125 Q225.3125,348.9063 226,349.9844 Q226.6875,351.0469 228.0313,351.0469 Q228.6563,351.0469 229.25,350.7813 Q229.8438,350.5 230.4688,349.9219 L230.4688,352.6406 Z " fill="#000000"/><text fill="#000000" font-family="sans-serif" font-size="14" lengthAdjust="spacing" textLength="22.5244" x="241.5" y="351.8467">pm</text><line style="stroke:#181818;stroke-width:0.5;" x1="213.5" x2="266.0244" y1="363" y2="363"/><line style="stroke:#181818;stroke-width:0.5;" x1="213.5" x2="266.0244" y1="371" y2="371"/></g><!--class <positive-digit>--><g id="elem_&lt;positive-digit&gt;"><rect codeLine="6" fill="#F1F1F1" height="48" id="&lt;positive-digit&gt;" rx="2.5" ry="2.5" style="stroke:#181818;stroke-width:0.5;" width="146.4678" x="8" y="331"/><ellipse cx="23" cy="347" fill="#ADD1B2" rx="11" ry="11" style="stroke:#181818;stroke-width:1;"/><path d="M25.9688,352.6406 Q25.3906,352.9375 24.75,353.0781 Q24.1094,353.2344 23.4063,353.2344 Q20.9063,353.2344 19.5781,351.5938 Q18.2656,349.9375 18.2656,346.8125 Q18.2656,343.6875 19.5781,342.0313 Q20.9063,340.375 23.4063,340.375 Q24.1094,340.375 24.75,340.5313 Q25.4063,340.6875 25.9688,340.9844 L25.9688,343.7031 Q25.3438,343.125 24.75,342.8594 Q24.1563,342.5781 23.5313,342.5781 Q22.1875,342.5781 21.5,343.6563 Q20.8125,344.7188 20.8125,346.8125 Q20.8125,348.9063 21.5,349.9844 Q22.1875,351.0469 23.5313,351.0469 Q24.1563,351.0469 24.75,350.7813 Q25.3438,350.5 25.9688,349.9219 L25.9688,352.6406 Z " fill="#000000"/><text fill="#000000" font-family="sans-serif" font-size="14" lengthAdjust="spacing" textLength="114.4678" x="37" y="351.8467">&lt;positive-digit&gt;</text><line style="stroke:#181818;stroke-width:0.5;" x1="9" x2="153.4678" y1="363" y2="363"/><line style="stroke:#181818;stroke-width:0.5;" x1="9" x2="153.4678" y1="371" y2="371"/></g><!--class <digit>--><g id="elem_&lt;digit&gt;"><rect codeLine="7" fill="#F1F1F1" height="48" id="&lt;digit&gt;" rx="2.5" ry="2.5" style="stroke:#181818;stroke-width:0.5;" width="86.5029" x="37.5" y="439"/><ellipse cx="52.5" cy="455" fill="#ADD1B2" rx="11" ry="11" style="stroke:#181818;stroke-width:1;"/><path d="M55.4688,460.6406 Q54.8906,460.9375 54.25,461.0781 Q53.6094,461.2344 52.9063,461.2344 Q50.4063,461.2344 49.0781,459.5938 Q47.7656,457.9375 47.7656,454.8125 Q47.7656,451.6875 49.0781,450.0313 Q50.4063,448.375 52.9063,448.375 Q53.6094,448.375 54.25,448.5313 Q54.9063,448.6875 55.4688,448.9844 L55.4688,451.7031 Q54.8438,451.125 54.25,450.8594 Q53.6563,450.5781 53.0313,450.5781 Q51.6875,450.5781 51,451.6563 Q50.3125,452.7188 50.3125,454.8125 Q50.3125,456.9063 51,457.9844 Q51.6875,459.0469 53.0313,459.0469 Q53.6563,459.0469 54.25,458.7813 Q54.8438,458.5 55.4688,457.9219 L55.4688,460.6406 Z " fill="#000000"/><text fill="#000000" font-family="sans-serif" font-size="14" lengthAdjust="spacing" textLength="54.5029" x="66.5" y="459.8467">&lt;digit&gt;</text><line style="stroke:#181818;stroke-width:0.5;" x1="38.5" x2="123.0029" y1="471" y2="471"/><line style="stroke:#181818;stroke-width:0.5;" x1="38.5" x2="123.0029" y1="479" y2="479"/></g><!--class 4--><g id="elem_4"><rect codeLine="8" fill="#F1F1F1" height="48" id="4" rx="2.5" ry="2.5" style="stroke:#181818;stroke-width:0.5;" width="40.9072" x="60.5" y="547"/><ellipse cx="75.5" cy="563" fill="#ADD1B2" rx="11" ry="11" style="stroke:#181818;stroke-width:1;"/><path d="M78.4688,568.6406 Q77.8906,568.9375 77.25,569.0781 Q76.6094,569.2344 75.9063,569.2344 Q73.4063,569.2344 72.0781,567.5938 Q70.7656,565.9375 70.7656,562.8125 Q70.7656,559.6875 72.0781,558.0313 Q73.4063,556.375 75.9063,556.375 Q76.6094,556.375 77.25,556.5313 Q77.9063,556.6875 78.4688,556.9844 L78.4688,559.7031 Q77.8438,559.125 77.25,558.8594 Q76.6563,558.5781 76.0313,558.5781 Q74.6875,558.5781 74,559.6563 Q73.3125,560.7188 73.3125,562.8125 Q73.3125,564.9063 74,565.9844 Q74.6875,567.0469 76.0313,567.0469 Q76.6563,567.0469 77.25,566.7813 Q77.8438,566.5 78.4688,565.9219 L78.4688,568.6406 Z " fill="#000000"/><text fill="#000000" font-family="sans-serif" font-size="14" lengthAdjust="spacing" textLength="8.9072" x="89.5" y="567.8467">4</text><line style="stroke:#181818;stroke-width:0.5;" x1="61.5" x2="100.4072" y1="579" y2="579"/><line style="stroke:#181818;stroke-width:0.5;" x1="61.5" x2="100.4072" y1="587" y2="587"/></g><!--link <time> to <12-hour-time>--><g id="link_&lt;time&gt;_&lt;12-hour-time&gt;"><path codeLine="10" d="M160,55 C160,72.66 160,90.94 160,108.68 " fill="transparent" id="&lt;time&gt;-to-&lt;12-hour-time&gt;" style="stroke:#181818;stroke-width:1;"/><polygon fill="#181818" points="160,114.68,164,105.68,160,109.68,156,105.68,160,114.68" style="stroke:#181818;stroke-width:1;"/></g><!--link <12-hour-time> to <12-hour-hour>--><g id="link_&lt;12-hour-time&gt;_&lt;12-hour-hour&gt;"><path codeLine="11" d="M142.86,163 C129.7,180.66 115.1852,200.129 101.9652,217.869 " fill="transparent" id="&lt;12-hour-time&gt;-to-&lt;12-hour-hour&gt;" style="stroke:#181818;stroke-width:1;"/><polygon fill="#181818" points="98.38,222.68,106.9652,217.8536,101.3677,218.6708,100.5505,213.0733,98.38,222.68" style="stroke:#181818;stroke-width:1;"/></g><!--link <12-hour-time> to <period>--><g id="link_&lt;12-hour-time&gt;_&lt;period&gt;"><path codeLine="12" d="M177.36,163 C190.69,180.66 205.3953,200.151 218.7853,217.891 " fill="transparent" id="&lt;12-hour-time&gt;-to-&lt;period&gt;" style="stroke:#181818;stroke-width:1;"/><polygon fill="#181818" points="222.4,222.68,220.1706,213.0868,219.3878,218.6892,213.7854,217.9063,222.4,222.68" style="stroke:#181818;stroke-width:1;"/></g><!--link <period> to pm--><g id="link_&lt;period&gt;_pm"><path codeLine="13" d="M240,271 C240,288.66 240,306.94 240,324.68 " fill="transparent" id="&lt;period&gt;-to-pm" style="stroke:#181818;stroke-width:1;"/><polygon fill="#181818" points="240,330.68,244,321.68,240,325.68,236,321.68,240,330.68" style="stroke:#181818;stroke-width:1;"/></g><!--link <12-hour-hour> to <positive-digit>--><g id="link_&lt;12-hour-hour&gt;_&lt;positive-digit&gt;"><path codeLine="14" d="M81,271 C81,288.66 81,306.94 81,324.68 " fill="transparent" id="&lt;12-hour-hour&gt;-to-&lt;positive-digit&gt;" style="stroke:#181818;stroke-width:1;"/><polygon fill="#181818" points="81,330.68,85,321.68,81,325.68,77,321.68,81,330.68" style="stroke:#181818;stroke-width:1;"/></g><!--link <positive-digit> to <digit>--><g id="link_&lt;positive-digit&gt;_&lt;digit&gt;"><path codeLine="15" d="M81,379 C81,396.66 81,414.94 81,432.68 " fill="transparent" id="&lt;positive-digit&gt;-to-&lt;digit&gt;" style="stroke:#181818;stroke-width:1;"/><polygon fill="#181818" points="81,438.68,85,429.68,81,433.68,77,429.68,81,438.68" style="stroke:#181818;stroke-width:1;"/></g><!--link <digit> to 4--><g id="link_&lt;digit&gt;_4"><path codeLine="16" d="M81,487 C81,504.66 81,522.94 81,540.68 " fill="transparent" id="&lt;digit&gt;-to-4" style="stroke:#181818;stroke-width:1;"/><polygon fill="#181818" points="81,546.68,85,537.68,81,541.68,77,537.68,81,546.68" style="stroke:#181818;stroke-width:1;"/></g><!--SRC=[Iyv9B2vMKB8foSnDjLDIgAxbIeQA61hfPkIN5kdYbW4Hg385gKMP-IaeOWMvg2hoYpDBCijITLCoqpDBK7LZ2fc0ELnmv-dgsc6wZ0j315KPn9cuLC6Sp8NaUh0CqE5S67w5wa7p11SMVq5K8XIWY9ie0G00]--></g></svg>